<svg id="Layer_1" data-name="Layer 1" xmlns="http://www.w3.org/2000/svg" viewBox="0 0 512 512"><defs><style>.cls-1{fill:#141f38;}</style></defs><title>envelope-open-document-outline</title><path class="cls-1" d="M179.2,140.8A12.8,12.8,0,0,1,192,128H320a12.8,12.8,0,0,1,0,25.6H192A12.8,12.8,0,0,1,179.2,140.8Zm12.8,64H320a12.8,12.8,0,0,0,0-25.6H192a12.8,12.8,0,0,0,0,25.6Zm102.4,25.6H217.6a12.8,12.8,0,0,0,0,25.6h76.8a12.8,12.8,0,0,0,0-25.6ZM512,224V448a64,64,0,0,1-61.85,63.95c-.71,0-1.42.05-2.14.05H64c-.72,0-1.43,0-2.14-.05A64,64,0,0,1,0,448V224a64,64,0,0,1,25.6-51.2l51.2-42.65V108.8a57.66,57.66,0,0,1,57.6-57.6h37.17l44.28-36.89a63.48,63.48,0,0,1,80.3,0L340.43,51.2H377.6a57.66,57.66,0,0,1,57.6,57.6v21.35l51.2,42.65A64,64,0,0,1,512,224ZM449,486.37c1,0,2.12-.14,3.16-.24a34.67,34.67,0,0,0,8.79-2.26L281.53,341.47a41.91,41.91,0,0,0-51.06,0L51,483.87a34.67,34.67,0,0,0,8.79,2.26c1,.1,2.15.2,3.16.24l1,0H448ZM30.79,467.25l139.83-111L76.8,279.52v-.34l-51.2-42V448A38.15,38.15,0,0,0,30.79,467.25Zm450.41,0A38.15,38.15,0,0,0,486.4,448V237.19l-51.2,42v.34l-93.82,76.76Zm-46-303.78v82.61L482,207.7c.18-.15.37-.27.55-.41a38.41,38.41,0,0,0-11.5-14q-.52-.39-1-.81ZM211.56,51.2h88.87L279.76,34a37.89,37.89,0,0,0-47.75.18ZM102.4,108.8V267.07l83.68,68.63a12.88,12.88,0,0,1,1.2,1.14l3.86,3.16,23.41-18.58a67.5,67.5,0,0,1,82.89,0L320.85,340l3.86-3.16a12.88,12.88,0,0,1,1.2-1.14l83.68-68.63V108.8a32,32,0,0,0-32-32H134.4A32,32,0,0,0,102.4,108.8ZM29.46,207.29c.18.14.37.26.55.41L76.8,246.07V163.47L42,192.47q-.5.42-1,.81A38.41,38.41,0,0,0,29.46,207.29Z"/></svg>