<svg id="Layer_1" data-name="Layer 1" xmlns="http://www.w3.org/2000/svg" viewBox="0 0 512 512"><defs><style>.cls-1{fill:#141f38;}</style></defs><title>envelope-open-document-glyph</title><path class="cls-1" d="M179.65,345.82l4.29,3.51,26-20.64a75,75,0,0,1,92.1,0l26,20.64,4.29-3.51a14.31,14.31,0,0,1,1.33-1.26l93-76.26V92.44a35.6,35.6,0,0,0-35.56-35.56H120.89A35.6,35.6,0,0,0,85.33,92.44V268.3l93,76.26A14.31,14.31,0,0,1,179.65,345.82Zm119-89.82H213.33a14.22,14.22,0,0,1,0-28.44h85.33a14.22,14.22,0,0,1,0,28.44ZM184.89,113.78H327.11a14.22,14.22,0,0,1,0,28.44H184.89a14.22,14.22,0,0,1,0-28.44Zm-14.22,71.11a14.22,14.22,0,0,1,14.22-14.22H327.11a14.22,14.22,0,0,1,0,28.44H184.89A14.22,14.22,0,0,1,170.67,184.89ZM305.37,28.44H206.62L229.35,9.51a42.09,42.09,0,0,1,53.06-.2ZM507.1,202.33l-52,42.64V153.18l38.68,32.23q.56.47,1.14.9a42.68,42.68,0,0,1,12.78,15.57C507.51,202,507.3,202.17,507.1,202.33Zm-502.19,0c-.2-.16-.41-.3-.61-.45a42.68,42.68,0,0,1,12.78-15.57q.58-.44,1.14-.9l38.68-32.23V245ZM284.37,351,483.74,509.19A38.52,38.52,0,0,1,474,511.7c-1.15.11-2.39.22-3.51.27l-1.14,0H42.67l-1.14,0c-1.12,0-2.36-.16-3.51-.27a38.53,38.53,0,0,1-9.76-2.51L227.63,351a46.56,46.56,0,0,1,56.74,0ZM161.14,367.43,5.77,490.72A42.39,42.39,0,0,1,0,469.33V235.1l56.89,46.66v.38Zm294-85.67L512,235.1V469.33a42.39,42.39,0,0,1-5.77,21.39L350.86,367.43l104.25-85.29Z"/></svg>